# File created by Blade
# Date/Time:  Tue Jan 27 19:05:02 2015
# Frame Rate: 120.000 fps
#------------------------------------------------------
:FULLY-SPECIFIED
:DEGREES
3321
root -2.653896 31.736056 -6.744400 20.131058 -14.006654 -1.863353
Spine -3.746286 5.783460 -7.161290
Head 2.461661 14.872231 -5.567008
LeftShoulder -16.378210 16.435305 16.241230
LeftArm 7.320689 -49.422621 -74.088967
LeftForeArm -6.870268 -0.000000 98.523553
LeftHand -12.513232 0.000000 41.100113
LeftHandThumb1 -26.253704 0.000000 33.147579
RightShoulder 0.200077 11.525310 -6.962099
RightArm 31.716724 -65.662378 71.777046
RightForeArm -31.683782 -0.000000 22.384090
RightHand -11.511750 -0.000000 15.986140
RightHandThumb1 -24.326973 -0.000000 -32.862282
LeftUpLeg -25.691250 0.327594 -7.716906
LeftLeg 16.348733 -0.000000 -0.000000
LeftFoot -23.684110 26.934722 -14.325468
LeftToeBase 10.767516 -0.000000 -0.000000
RightUpLeg -10.231581 -1.173452 -6.041408
RightLeg 117.377652 -0.000000 -0.000000
RightFoot -1.718577 -18.217488 11.053019
RightToeBase 2.888933 -0.000000 -0.000000
3322
root -2.678461 31.736290 -6.746661 20.080923 -13.906490 -1.875055
Spine -3.731310 5.715365 -7.187281
Head 2.433078 14.851657 -5.507991
LeftShoulder -16.481173 16.530482 16.119373
LeftArm 7.396336 -49.213882 -74.071379
LeftForeArm -6.771621 -0.000000 98.935555
LeftHand -12.361229 -0.000000 40.705337
LeftHandThumb1 -26.253704 0.000000 33.147579
RightShoulder 0.251859 11.563872 -7.010060
RightArm 31.406646 -65.612844 72.155151
RightForeArm -31.939274 -0.000000 22.203658
RightHand -11.449944 -0.000000 16.231408
RightHandThumb1 -24.326973 -0.000000 -32.862282
LeftUpLeg -25.646331 0.214708 -7.620742
LeftLeg 16.370564 -0.000000 -0.000000
LeftFoot -23.700510 27.001276 -14.327630
LeftToeBase 10.778854 -0.000000 -0.000000
RightUpLeg -10.503477 -1.056848 -5.852019
RightLeg 116.003260 -0.000000 -0.000000
RightFoot -2.650657 -17.977073 11.191594
RightToeBase 2.357419 -0.000000 -0.000000
3323
root -2.702728 31.736382 -6.751660 20.037389 -13.810496 -1.896634
Spine -3.720808 5.689366 -7.220733
Head 2.412076 14.822771 -5.430604
LeftShoulder -16.521576 16.581678 16.053696
LeftArm 7.393641 -49.017863 -74.035568
LeftForeArm -6.792697 -0.000000 99.410657
LeftHand -12.482641 0.000000 40.559255
LeftHandThumb1 -26.253704 0.000000 33.147579
RightShoulder 0.223476 11.571497 -7.040667
RightArm 31.637338 -65.816121 71.893292
RightForeArm -31.818184 -0.000000 22.102554
RightHand -11.544534 -0.000000 16.236924
RightHandThumb1 -24.326973 -0.000000 -32.862282
LeftUpLeg -25.619179 0.084752 -7.507267
LeftLeg 16.417767 -0.000000 -0.000000
LeftFoot -23.660709 27.124843 -14.271319
LeftToeBase 10.631852 -0.000000 -0.000000
RightUpLeg -10.795667 -0.913202 -5.648987
RightLeg 114.526338 -0.000000 -0.000000
RightFoot -3.693575 -17.781926 11.746184
RightToeBase 2.549958 -0.000000 -0.000000
3324
root -2.728021 31.737244 -6.756562 19.999787 -13.728563 -1.922230
Spine -3.719426 5.642310 -7.255211
Head 2.412976 14.808365 -5.361240
LeftShoulder -16.605534 16.658814 15.978479
LeftArm 7.439114 -48.847370 -74.067981
LeftForeArm -6.769952 -0.000000 99.842781
LeftHand -12.464149 0.000000 40.194322
LeftHandThumb1 -26.253704 0.000000 33.147579
RightShoulder 0.234119 11.563464 -7.075518
RightArm 31.669991 -65.864554 71.869330
RightForeArm -31.867333 -0.000000 21.996208
RightHand -11.481474 -0.000000 16.339098
RightHandThumb1 -24.326973 -0.000000 -32.862282
LeftUpLeg -25.602105 0.003162 -7.404892
LeftLeg 16.473933 -0.000000 -0.000000
LeftFoot -23.682156 27.189048 -14.264032
LeftToeBase 10.632327 -0.000000 -0.000000
RightUpLeg -11.080908 -0.768056 -5.420035
RightLeg 112.943767 -0.000000 -0.000000
RightFoot -4.701229 -17.624739 12.222187
RightToeBase 2.457174 -0.000000 -0.000000
3325
root -2.750435 31.738168 -6.759559 19.952648 -13.649016 -1.934249
Spine -3.719424 5.597370 -7.295770
Head 2.460415 14.784196 -5.274188
LeftShoulder -16.713392 16.753978 15.885721
LeftArm 7.592917 -48.603595 -74.169084
LeftForeArm -6.852390 0.000000 100.295276
LeftHand -12.512287 -0.000000 40.311016
LeftHandThumb1 -26.253704 0.000000 33.147579
RightShoulder 0.237702 11.573790 -7.107244
RightArm 31.585552 -65.887785 71.935894
RightForeArm -31.949177 -0.000000 21.930389
RightHand -11.473631 -0.000000 16.420897
RightHandThumb1 -24.326973 -0.000000 -32.862282
LeftUpLeg -25.570105 -0.097460 -7.314888
LeftLeg 16.520535 -0.000000 -0.000000
LeftFoot -23.732549 27.233550 -14.317234
LeftToeBase 10.662258 -0.000000 -0.000000
RightUpLeg -11.341248 -0.638497 -5.223110
RightLeg 111.238013 -0.000000 -0.000000
RightFoot -5.790800 -17.533752 12.691880
RightToeBase 2.904817 -0.000000 -0.000000
3326
root -2.771330 31.739122 -6.762338 19.910976 -13.585005 -1.953218
Spine -3.718500 5.561720 -7.313393
Head 2.507697 14.746199 -5.229400
LeftShoulder -16.795529 16.858566 15.770085
LeftArm 7.680980 -48.464009 -74.244938
LeftForeArm -6.964412 0.000000 100.716702
LeftHand -12.319002 -0.000000 40.123080
LeftHandThumb1 -26.253704 0.000000 33.147579
RightShoulder 0.226778 11.582346 -7.148919
RightArm 31.523451 -65.893952 71.981144
RightForeArm -32.090282 -0.000000 21.823027
RightHand -11.422074 -0.000000 16.387755
RightHandThumb1 -24.326973 -0.000000 -32.862282
LeftUpLeg -25.547307 -0.152704 -7.235683
LeftLeg 16.578690 -0.000000 -0.000000
LeftFoot -23.774499 27.238265 -14.351129
LeftToeBase 10.687418 -0.000000 -0.000000
RightUpLeg -11.607232 -0.535482 -5.031386
RightLeg 109.508787 -0.000000 -0.000000
RightFoot -6.908859 -17.476336 12.953753
RightToeBase 2.328588 -0.000000 -0.000000
3327
root -2.792847 31.741289 -6.765307 19.873277 -13.539224 -1.976674
Spine -3.724184 5.538266 -7.337329
Head 2.550086 14.711892 -5.192217
LeftShoulder -16.856960 16.923593 15.687108
LeftArm 7.741101 -48.329386 -74.308381
LeftForeArm -6.857582 -0.000000 101.097193
LeftHand -12.328933 -0.000000 39.807584
LeftHandThumb1 -26.253704 0.000000 33.147579
RightShoulder 0.186945 11.574132 -7.195766
RightArm 31.988644 -66.145314 71.404449
RightForeArm -31.658465 -0.000000 21.869627
RightHand -11.460333 -0.000000 16.420828
RightHandThumb1 -24.326973 -0.000000 -32.862282
LeftUpLeg -25.524450 -0.200795 -7.153870
LeftLeg 16.627727 -0.000000 -0.000000
LeftFoot -23.775009 27.279036 -14.354407
LeftToeBase 10.620202 -0.000000 -0.000000
RightUpLeg -11.850240 -0.342205 -4.828431
RightLeg 107.671106 -0.000000 -0.000000
RightFoot -7.857901 -17.248503 12.939116
RightToeBase 1.721407 -0.000000 -0.000000
3328
root -2.816625 31.747430 -6.772139 19.882358 -13.493826 -2.039679
Spine -3.758440 5.523253 -7.325283
Head 2.576230 14.683092 -5.182172
LeftShoulder -16.941459 16.901369 15.582148
LeftArm 7.677214 -48.177428 -74.256580
LeftForeArm -6.911549 -0.000000 101.471617
LeftHand -12.176159 -0.000000 39.636112
LeftHandThumb1 -26.253704 0.000000 33.147579
RightShoulder 0.140831 11.508791 -7.196203
RightArm 31.811975 -65.944584 71.580506
RightForeArm -31.859854 -0.000000 21.822693
RightHand -11.588024 0.000000 16.569537
RightHandThumb1 -24.326973 -0.000000 -32.862282
LeftUpLeg -25.536959 -0.239188 -7.025710
LeftLeg 16.655120 -0.000000 -0.000000
LeftFoot -23.869949 27.239831 -14.488221
LeftToeBase 10.801209 -0.000000 -0.000000
RightUpLeg -12.084821 0.039070 -4.478260
RightLeg 105.719594 -0.000000 -0.000000
RightFoot -8.776965 -17.172388 12.755225
RightToeBase 1.170860 -0.000000 -0.000000
3329
root -2.834491 31.751210 -6.775617 19.850467 -13.481399 -2.041727
Spine -3.762582 5.510461 -7.373330
Head 2.601765 14.664080 -5.171634
LeftShoulder -17.022752 16.968555 15.485454
LeftArm 7.807077 -48.137377 -74.440018
LeftForeArm -6.946028 0.000000 101.826913
LeftHand -12.096332 -0.000000 39.095009
LeftHandThumb1 -26.253704 0.000000 33.147579
RightShoulder 0.057913 11.453075 -7.223583
RightArm 32.228863 -66.102590 71.070024
RightForeArm -31.638270 0.000000 21.820568
RightHand -11.616010 0.000000 16.241953
RightHandThumb1 -24.326973 -0.000000 -32.862282
LeftUpLeg -25.493605 -0.324700 -6.956594
LeftLeg 16.631906 -0.000000 -0.000000
LeftFoot -23.897575 27.286256 -14.592314
LeftToeBase 10.826813 -0.000000 -0.000000
RightUpLeg -12.310813 0.298299 -4.313250
RightLeg 103.755208 -0.000000 -0.000000
RightFoot -9.721669 -16.976737 12.819834
RightToeBase 0.845968 -0.000000 -0.000000
3330
root -2.848214 31.752278 -6.775102 19.777665 -13.512139 -2.021690
Spine -3.737892 5.522382 -7.438681
Head 2.639409 14.670090 -5.198858
LeftShoulder -17.113198 17.044785 15.385313
LeftArm 7.904900 -48.052802 -74.568702
LeftForeArm -6.541509 -0.000000 102.101740
LeftHand -11.993372 -0.000000 38.593272
LeftHandThumb1 -26.253704 0.000000 33.147579
RightShoulder 0.027644 11.403011 -7.270426
RightArm 32.072505 -65.906697 71.258891
RightForeArm -31.670315 -0.000000 21.756045
RightHand -11.756209 -0.000000 16.308473
RightHandThumb1 -24.326973 -0.000000 -32.862282
LeftUpLeg -25.409473 -0.359133 -6.940846
LeftLeg 16.614003 -0.000000 -0.000000
LeftFoot -23.909473 27.346616 -14.625577
LeftToeBase 10.751165 -0.000000 -0.000000
RightUpLeg -12.496883 0.502663 -4.255624
RightLeg 101.710091 -0.000000 -0.000000
RightFoot -10.593739 -16.791815 12.909101
RightToeBase 0.450535 -0.000000 -0.000000
